<mxfile host="app.diagrams.net" modified="2024-01-31T17:26:16.701Z" agent="Mozilla/5.0 (Macintosh; Intel Mac OS X 10_15_7) AppleWebKit/537.36 (KHTML, like Gecko) Chrome/120.0.0.0 Safari/537.36" etag="lpA_-O_mnWu9yfCVUPks" version="23.0.1" type="github">
  <diagram name="Page-1" id="-UWRHFDBbRIohfPuF_SI">
    <mxGraphModel dx="1933" dy="722" grid="1" gridSize="10" guides="1" tooltips="1" connect="1" arrows="1" fold="1" page="1" pageScale="1" pageWidth="850" pageHeight="1100" math="0" shadow="0">
      <root>
        <mxCell id="0" />
        <mxCell id="1" parent="0" />
        <mxCell id="IDpiiZ28sibhjpTMwkCf-3" value="" style="edgeStyle=orthogonalEdgeStyle;rounded=0;orthogonalLoop=1;jettySize=auto;html=1;" edge="1" parent="1" source="IDpiiZ28sibhjpTMwkCf-1" target="IDpiiZ28sibhjpTMwkCf-2">
          <mxGeometry relative="1" as="geometry" />
        </mxCell>
        <mxCell id="IDpiiZ28sibhjpTMwkCf-1" value="MaterialApp" style="rounded=1;whiteSpace=wrap;html=1;" vertex="1" parent="1">
          <mxGeometry x="330" y="10" width="120" height="60" as="geometry" />
        </mxCell>
        <mxCell id="IDpiiZ28sibhjpTMwkCf-5" value="" style="edgeStyle=orthogonalEdgeStyle;rounded=0;orthogonalLoop=1;jettySize=auto;html=1;" edge="1" parent="1" source="IDpiiZ28sibhjpTMwkCf-2" target="IDpiiZ28sibhjpTMwkCf-4">
          <mxGeometry relative="1" as="geometry" />
        </mxCell>
        <mxCell id="IDpiiZ28sibhjpTMwkCf-2" value="Scaffold" style="whiteSpace=wrap;html=1;rounded=1;" vertex="1" parent="1">
          <mxGeometry x="330" y="150" width="120" height="60" as="geometry" />
        </mxCell>
        <mxCell id="IDpiiZ28sibhjpTMwkCf-7" value="" style="edgeStyle=orthogonalEdgeStyle;rounded=0;orthogonalLoop=1;jettySize=auto;html=1;" edge="1" parent="1" source="IDpiiZ28sibhjpTMwkCf-4" target="IDpiiZ28sibhjpTMwkCf-6">
          <mxGeometry relative="1" as="geometry" />
        </mxCell>
        <mxCell id="IDpiiZ28sibhjpTMwkCf-9" value="" style="edgeStyle=orthogonalEdgeStyle;rounded=0;orthogonalLoop=1;jettySize=auto;html=1;" edge="1" parent="1" source="IDpiiZ28sibhjpTMwkCf-4" target="IDpiiZ28sibhjpTMwkCf-8">
          <mxGeometry relative="1" as="geometry" />
        </mxCell>
        <mxCell id="IDpiiZ28sibhjpTMwkCf-11" value="" style="edgeStyle=orthogonalEdgeStyle;rounded=0;orthogonalLoop=1;jettySize=auto;html=1;" edge="1" parent="1" source="IDpiiZ28sibhjpTMwkCf-4" target="IDpiiZ28sibhjpTMwkCf-10">
          <mxGeometry relative="1" as="geometry" />
        </mxCell>
        <mxCell id="IDpiiZ28sibhjpTMwkCf-4" value="Column" style="whiteSpace=wrap;html=1;rounded=1;" vertex="1" parent="1">
          <mxGeometry x="330" y="290" width="120" height="60" as="geometry" />
        </mxCell>
        <mxCell id="IDpiiZ28sibhjpTMwkCf-6" value="Text" style="whiteSpace=wrap;html=1;rounded=1;" vertex="1" parent="1">
          <mxGeometry x="330" y="430" width="120" height="60" as="geometry" />
        </mxCell>
        <mxCell id="IDpiiZ28sibhjpTMwkCf-8" value="Button" style="whiteSpace=wrap;html=1;rounded=1;" vertex="1" parent="1">
          <mxGeometry x="570" y="430" width="120" height="60" as="geometry" />
        </mxCell>
        <mxCell id="IDpiiZ28sibhjpTMwkCf-16" value="" style="edgeStyle=orthogonalEdgeStyle;rounded=0;orthogonalLoop=1;jettySize=auto;html=1;" edge="1" parent="1" source="IDpiiZ28sibhjpTMwkCf-10" target="IDpiiZ28sibhjpTMwkCf-15">
          <mxGeometry relative="1" as="geometry" />
        </mxCell>
        <mxCell id="IDpiiZ28sibhjpTMwkCf-18" value="" style="edgeStyle=orthogonalEdgeStyle;rounded=0;orthogonalLoop=1;jettySize=auto;html=1;" edge="1" parent="1" source="IDpiiZ28sibhjpTMwkCf-10" target="IDpiiZ28sibhjpTMwkCf-17">
          <mxGeometry relative="1" as="geometry" />
        </mxCell>
        <mxCell id="IDpiiZ28sibhjpTMwkCf-20" value="" style="edgeStyle=orthogonalEdgeStyle;rounded=0;orthogonalLoop=1;jettySize=auto;html=1;" edge="1" parent="1" source="IDpiiZ28sibhjpTMwkCf-10" target="IDpiiZ28sibhjpTMwkCf-19">
          <mxGeometry relative="1" as="geometry" />
        </mxCell>
        <mxCell id="IDpiiZ28sibhjpTMwkCf-10" value="Row" style="whiteSpace=wrap;html=1;rounded=1;" vertex="1" parent="1">
          <mxGeometry x="70" y="510" width="120" height="60" as="geometry" />
        </mxCell>
        <mxCell id="IDpiiZ28sibhjpTMwkCf-12" value="Button" style="whiteSpace=wrap;html=1;rounded=1;" vertex="1" parent="1">
          <mxGeometry x="710" y="430" width="120" height="60" as="geometry" />
        </mxCell>
        <mxCell id="IDpiiZ28sibhjpTMwkCf-13" value="" style="endArrow=none;html=1;rounded=0;" edge="1" parent="1">
          <mxGeometry width="50" height="50" relative="1" as="geometry">
            <mxPoint x="630" y="320" as="sourcePoint" />
            <mxPoint x="760" y="320" as="targetPoint" />
          </mxGeometry>
        </mxCell>
        <mxCell id="IDpiiZ28sibhjpTMwkCf-14" value="" style="endArrow=classic;html=1;rounded=0;entryX=0.433;entryY=-0.033;entryDx=0;entryDy=0;entryPerimeter=0;" edge="1" parent="1" target="IDpiiZ28sibhjpTMwkCf-12">
          <mxGeometry width="50" height="50" relative="1" as="geometry">
            <mxPoint x="760" y="320" as="sourcePoint" />
            <mxPoint x="370" y="330" as="targetPoint" />
          </mxGeometry>
        </mxCell>
        <mxCell id="IDpiiZ28sibhjpTMwkCf-15" value="Icon" style="whiteSpace=wrap;html=1;rounded=1;" vertex="1" parent="1">
          <mxGeometry x="-140" y="640" width="120" height="60" as="geometry" />
        </mxCell>
        <mxCell id="IDpiiZ28sibhjpTMwkCf-17" value="Icon" style="whiteSpace=wrap;html=1;rounded=1;" vertex="1" parent="1">
          <mxGeometry x="270" y="640" width="120" height="60" as="geometry" />
        </mxCell>
        <mxCell id="IDpiiZ28sibhjpTMwkCf-19" value="Icon" style="whiteSpace=wrap;html=1;rounded=1;" vertex="1" parent="1">
          <mxGeometry x="20" y="640" width="120" height="60" as="geometry" />
        </mxCell>
        <mxCell id="IDpiiZ28sibhjpTMwkCf-21" value="&lt;font style=&quot;font-size: 35px;&quot;&gt;...&lt;/font&gt;" style="text;html=1;strokeColor=none;fillColor=none;align=center;verticalAlign=middle;whiteSpace=wrap;rounded=0;" vertex="1" parent="1">
          <mxGeometry x="180" y="655" width="60" height="30" as="geometry" />
        </mxCell>
      </root>
    </mxGraphModel>
  </diagram>
</mxfile>
